<svg xmlns="http://www.w3.org/2000/svg" viewBox="0 0 576 750.3"><title>OCG</title><ellipse cx="105.1" cy="303.9" rx="12.8" ry="20.5" fill="#7bdf04"/><path d="M221.2 316.4c0 12.8 21.4 8.5 21.4 8.5v-19.8s-21.4-1.5-21.4 11.3zm82.3 136.8c0 26.2 43.9 17.4 43.9 17.4v-40.5s-43.9-3.1-43.9 23.1z" fill="#7bdf04"/><ellipse cx="376" cy="303.8" rx="12.8" ry="20.5" fill="#7bdf04"/><path d="M260.5 538.6c-15.3 0-28.7 19.9-28.7 44.5s13.4 42.5 28.7 42.5 28.7-17.9 28.7-42.5-13.4-44.5-28.7-44.5zm163.7-102.4v37.5s45.9 8.7 45.9-17.4-45.9-20.1-45.9-20.1z" fill="#7bdf04"/><path d="M448.4 174.3H295.3l-4.3-36.4c23-6.9 65.4-21.7 88.5-44.8 27.3-27.3 38.1-73.1 41.1-88.6a3.7 3.7 0 0 0-4.4-4.3c-15.4 3.2-60.7 14.5-87.9 41.7-17.2 17.2-31.5 43.6-40.9 65L279 35l-30 22.8 26.5 116.5h-148A127.6 127.6 0 0 0 0 301.8v320.9a127.6 127.6 0 0 0 127.6 127.6h320.9A127.6 127.6 0 0 0 576 622.7V301.8a127.6 127.6 0 0 0-127.6-127.5zm-34.3 98.4h19l13.5 42.2 14.5-42.2h19.3l8.3 62.8h-15.3l-5.3-44.5-13.5 44.5h-14.2l-14.7-44.3-4.7 44.3h-15.5zm-38.2-3.9c16 0 29 15.7 29 35s-13 35-29 35-29-15.7-29-35 13.1-35 29.1-35zm-88.4 121.6l-9.5-22c100.2-33.8 102 23.1 102 23.1v94.1c0 7.4-107.4 21.7-107.4-28.6s74.6-49.6 74.6-49.6v-17c-17.4-17.4-59.7 0-59.7 0zM271 272h19l13.5 42.2L318 272h19.3l8.3 62.8h-15.3l-5.3-44.5-13.5 44.5h-14.2l-14.7-44.3-4.7 44.3h-15.5zm-.5 220.8h-33.8l-10.5-104.7H202C190.7 487 145 496 145 496l-11.7-26.2c37.8-13.7 38.8-108 38.8-108h84.2zm-12-206.5v45.9c0 3.6-53.9 10.6-53.9-13.9s37.9-24.2 37.9-24.2v-8.2c-8.5-8.5-29.1 0-29.1 0l-4.6-10.7c48.8-16.7 49.7 11.1 49.7 11.1zm-53-12.7l-6.2 11s-24.5-9-24.5 17.8 25 19.4 25 19.4l5.8 10.3s-45.5 19.5-45.5-29.2 45.4-29.4 45.4-29.4zm-50.8 114.3H111v105H78.5v-131h76.2v26zM105.1 269c16 0 29 15.7 29 35s-13 35-29 35-29-15.7-29-35 13-35.1 29-35.1zm85.1 381.4h-35.6v-56.6h-42.2v56.5h-34v-136h33.8v55h42.4v-55h35.6v136zm70.3 4c-33 0-62-29.2-62-71.2s28.9-71.2 62-71.2 62 29.2 62 71.2-29 71.1-62 71.1zm208.5-4l-11.5-96.3-29.2 96.3h-30.7l-31.7-96-10.1 96h-33.5l18.4-136h41.1l29.2 91.3 31.4-91.3h41.8l18 136H469zm-26-154.3c-37.7 0-49-11.3-49-11.3v-116s23.3-9 49.7-9 55.1 8.7 55.1 33.3-23.1 32.5-23.1 32.5c12.7 0 26.7 14.9 26.7 34.9S480.7 496 443 496z" fill="#7bdf04"/><path d="M467.1 398.5c0-26.2-42.9-16.1-42.9-16.1v33.5s42.9 8.7 42.9-17.4z" fill="#7bdf04"/></svg>