<?xml version="1.0" encoding="utf-8"?>
<!-- Generator: Adobe Illustrator 19.2.1, SVG Export Plug-In . SVG Version: 6.00 Build 0)  -->
<svg version="1.1" id="Layer_1" xmlns="http://www.w3.org/2000/svg" xmlns:xlink="http://www.w3.org/1999/xlink" x="0px" y="0px"
	 viewBox="0 0 24 24" style="enable-background:new 0 0 24 24;" xml:space="preserve">
<style type="text/css">
	.st0{fill:#F0544C;}
</style>
<path class="st0" d="M5.6,22.3l-4.4,0.9C1,23.3,0.7,23,0.8,22.7l0.9-4.4c0-0.1,0.1-0.2,0.1-0.2L18.3,1.7c0.1-0.1,0.1-0.1,0.2-0.1
	l4.3-0.8C23,0.7,23.3,1,23.2,1.2l-0.8,4.3c0,0.1-0.1,0.2-0.1,0.2L5.8,22.2C5.8,22.3,5.7,22.3,5.6,22.3z"/>
<path class="st0" d="M22.3,18.4l0.9,4.4c0.1,0.3-0.2,0.6-0.5,0.5l-4.4-0.9c-0.1,0-0.2-0.1-0.2-0.1L1.7,5.7C1.6,5.7,1.6,5.6,1.6,5.5
	L0.8,1.2C0.7,1,1,0.7,1.2,0.8l4.3,0.8c0.1,0,0.2,0.1,0.2,0.1l16.5,16.5C22.3,18.2,22.3,18.3,22.3,18.4z"/>
</svg>
