<?xml version="1.0" encoding="utf-8"?>
<!-- Generator: Adobe Illustrator 19.2.1, SVG Export Plug-In . SVG Version: 6.00 Build 0)  -->
<svg version="1.1" id="Layer_1" xmlns="http://www.w3.org/2000/svg" xmlns:xlink="http://www.w3.org/1999/xlink" x="0px" y="0px"
	 viewBox="0 0 48 48" style="enable-background:new 0 0 48 48;" xml:space="preserve">
<style type="text/css">
	.st0{opacity:5.000000e-002;enable-background:new    ;}
	.st1{opacity:0.1;enable-background:new    ;}
	.st2{opacity:0.2;enable-background:new    ;}
	.st3{fill:url(#SVGID_1_);}
	.st4{display:none;opacity:0.1;}
	.st5{display:inline;}
	.st6{display:none;}
	.st7{display:inline;fill:#FF8F00;}
	.st8{display:inline;fill:#FFFDF0;}
	.st9{display:inline;fill:#FFCA28;}
	.st10{opacity:0.1;}
	.st11{fill:#FFCA28;}
</style>
<g>
	<path class="st0" d="M36.3,5C42.2,9.1,46,15.8,46,23.5C46,35.9,35.9,46,23.5,46C15.8,46,9.1,42.2,5,36.3c1,1.8,2.3,3.5,3.8,5
		c4.1,3.7,9.5,6,15.5,6c12.7,0,23-10.3,23-23c0-6-2.3-11.4-6-15.5C39.8,7.3,38.1,6,36.3,5z M41.3,8.8c3.9,4.1,6.2,9.6,6.2,15.7
		c0,12.7-10.3,23-23,23c-6.1,0-11.6-2.4-15.7-6.2C12.9,45.4,18.7,48,25,48c12.7,0,23-10.3,23-23C48,18.7,45.4,12.9,41.3,8.8z"/>
	<path class="st1" d="M41.3,8.8c3.7,4.1,6,9.5,6,15.5c0,12.7-10.3,23-23,23c-6,0-11.4-2.3-15.5-6c4.1,3.9,9.6,6.2,15.7,6.2
		c12.7,0,23-10.3,23-23C47.5,18.4,45.1,12.9,41.3,8.8z"/>
	<path class="st2" d="M31.3,2.4C39.9,5.5,46,13.8,46,23.5C46,35.9,35.9,46,23.5,46c-9.7,0-18-6.1-21.1-14.7
		c3.9,12.1,16.9,18.7,29,14.8c9.4-3.1,15.9-11.8,15.9-21.8C47.2,14.3,40.8,5.4,31.3,2.4L31.3,2.4z"/>
</g>
<g>
	
		<linearGradient id="SVGID_1_" gradientUnits="userSpaceOnUse" x1="-668" y1="-97.72" x2="-622" y2="-97.72" gradientTransform="matrix(0 -1 -1 0 -73.72 -621.0001)">
		<stop  offset="0" style="stop-color:#7568A0"/>
		<stop  offset="1" style="stop-color:#8074A8"/>
	</linearGradient>
	<path class="st3" d="M24,1c12.7,0,23,10.3,23,23S36.7,47,24,47S1,36.7,1,24S11.3,1,24,1z"/>
</g>
<g>
	<path class="st1" d="M40,7.5c3.7,4.1,6,9.5,6,15.5c0,12.7-10.3,23-23,23c-6,0-11.4-2.3-15.5-6c4.2,4.3,10,7,16.5,7
		c12.7,0,23-10.3,23-23C47,17.5,44.3,11.7,40,7.5z"/>
</g>
<g transform="matrix(3.543307,0,0,3.543307,0.99999982,2)" class="st4">
	<path class="st5" d="M3.7,4C3.5,4,3.4,4.1,3.4,4.2c0,1.6,0,3.2,0,4.8h6.8V4.8c0-0.2-0.1-0.3-0.3-0.3c-0.9,0-1.9,0-2.8,0L6.8,4H3.7z
		"/>
</g>
<g transform="scale(3.543307,3.543307)" class="st6">
	<path class="st7" d="M3.4,4.5v4h6.5v-2L9.6,4.8H7.1L6.8,4.2H3.7C3.5,4.2,3.4,4.4,3.4,4.5L3.4,4.5z"/>
	<rect x="4" y="5.1" class="st8" width="3.1" height="1.1"/>
	<path class="st9" d="M10.2,5.1v4.2H3.4v-4h3.4l0.3-0.6h2.8C10,4.8,10.2,4.9,10.2,5.1L10.2,5.1z"/>
</g>
<g class="st10">
	<path d="M25.1,9.3c-4.5,0-8.1,3.6-8.1,8.1c0,4.5,3.6,8.1,8.1,8.1s8.1-3.6,8.1-8.1C33.3,12.9,29.6,9.3,25.1,9.3z M25.1,20.8
		c-1.9,0-3.4-1.5-3.4-3.4s1.5-3.4,3.4-3.4s3.4,1.5,3.4,3.4C28.5,19.3,27,20.8,25.1,20.8z"/>
	<path d="M28,32.1c3.3-0.7,5.2-2.2,5.3-2.3c1-0.8,1.1-2.2,0.3-3.1c-0.8-1-2.2-1.1-3.1-0.3c0,0-2.1,1.6-5.5,1.6
		c-3.4,0-5.6-1.6-5.6-1.6c-1-0.8-2.3-0.6-3.1,0.3c-0.8,1-0.6,2.3,0.3,3.1c0.1,0.1,2.1,1.7,5.5,2.3L17.5,37c-0.8,0.9-0.8,2.3,0.1,3.1
		c0.4,0.4,1,0.6,1.5,0.6c0.6,0,1.2-0.2,1.6-0.7l4.3-4.6l4.8,4.7c0.9,0.9,2.3,0.9,3.1,0c0.9-0.9,0.9-2.3,0-3.1L28,32.1z"/>
</g>
<g>
	<path class="st11" d="M24.1,8.3c-4.5,0-8.1,3.6-8.1,8.1c0,4.5,3.6,8.1,8.1,8.1s8.1-3.6,8.1-8.1C32.3,11.9,28.6,8.3,24.1,8.3z
		 M24.1,19.8c-1.9,0-3.4-1.5-3.4-3.4s1.5-3.4,3.4-3.4s3.4,1.5,3.4,3.4C27.5,18.3,26,19.8,24.1,19.8z"/>
	<path class="st11" d="M27,31.1c3.3-0.7,5.2-2.2,5.3-2.3c1-0.8,1.1-2.2,0.3-3.1c-0.8-1-2.2-1.1-3.1-0.3c0,0-2.1,1.6-5.5,1.6
		c-3.4,0-5.6-1.6-5.6-1.6c-1-0.8-2.3-0.6-3.1,0.3c-0.8,1-0.6,2.3,0.3,3.1c0.1,0.1,2.1,1.7,5.5,2.3L16.5,36c-0.8,0.9-0.8,2.3,0.1,3.1
		c0.4,0.4,1,0.6,1.5,0.6c0.6,0,1.2-0.2,1.6-0.7l4.3-4.6l4.8,4.7c0.9,0.9,2.3,0.9,3.1,0c0.9-0.9,0.9-2.3,0-3.1L27,31.1z"/>
</g>
</svg>
